<svg width="80" height="30" viewBox="0 0 80 30" fill="none" xmlns="http://www.w3.org/2000/svg">
<path d="M-0.000732422 17.3453V0.22207H2.24275V15.1184H8.44309V17.3439L-0.000732422 17.3453ZM14.6149 0.22207V17.3439H12.3714V0.222752L14.6149 0.22207ZM34.089 2.56548C35.8233 4.27752 36.6907 6.34275 36.6907 8.76184C36.6907 11.1796 35.8233 13.2455 34.089 14.9582C32.3547 16.6696 30.2629 17.5259 27.8128 17.5259C25.3627 17.5259 23.2709 16.6703 21.536 14.9582C19.8017 13.2455 18.9349 11.1796 18.9349 8.76184C18.9349 6.34275 19.8017 4.27752 21.5367 2.56548C23.2709 0.852752 25.3627 -0.00292969 27.8128 -0.00292969C30.2629 -0.00292969 32.3554 0.852752 34.089 2.56548V2.56548ZM27.8128 2.23343C25.984 2.23343 24.425 2.87025 23.1353 4.14389C21.8455 5.41753 21.2007 6.95639 21.2007 8.76184C21.2007 10.5659 21.8476 12.1075 23.1408 13.3846C24.4347 14.6616 25.9916 15.3005 27.8128 15.3005C29.641 15.3005 31.2007 14.6616 32.4904 13.3846C33.7801 12.1075 34.4257 10.5659 34.4257 8.76184C34.4257 6.95639 33.7801 5.41753 32.4904 4.14389C31.2007 2.87025 29.641 2.23343 27.8128 2.23343V2.23343ZM40.793 0.222752H42.8417L49.9958 12.443V0.222752H52.2511V17.3446H50.2887L43.0365 4.97366V17.3453H40.793V0.222752ZM59.0734 0.222752V17.3446H56.8292V0.222752H59.0734ZM77.0838 13.2673L78.7638 14.755C76.7116 16.6028 74.5398 17.5266 72.249 17.5266C69.7989 17.5266 67.7106 16.6743 65.9833 14.9698C64.256 13.2639 63.3927 11.2021 63.3927 8.78366C63.3927 6.37275 64.256 4.31093 65.9833 2.59821C67.7106 0.886161 69.7989 0.0297976 72.249 0.0297976C74.5398 0.0297976 76.7116 0.954343 78.7638 2.80139L77.0838 4.31093C75.5374 2.9548 73.9255 2.27707 72.249 2.27707C70.4347 2.27707 68.8827 2.91252 67.593 4.18207C66.3026 5.45162 65.6577 6.98571 65.6577 8.78366C65.6577 10.5884 66.3026 12.1259 67.593 13.3962C68.8827 14.6657 70.4347 15.3005 72.249 15.3005C73.9255 15.3005 75.5374 14.6234 77.0838 13.2673V13.2673ZM36.8535 27.8616H39.1805V28.3205H36.3457V23.393H36.8535V27.8616ZM40.0257 26.8171C40.0403 26.9793 40.08 27.1328 40.146 27.2766C40.2711 27.5537 40.4978 27.7747 40.7812 27.8957C40.9224 27.9571 41.0747 27.9864 41.2396 27.9864C41.4887 27.9864 41.7036 27.9298 41.8845 27.8159C42.0654 27.7021 42.2031 27.5712 42.297 27.4225L42.6567 27.7157C42.4591 27.9612 42.2421 28.1371 42.0041 28.2441C41.7639 28.3513 41.5028 28.406 41.2389 28.4043C40.9954 28.4043 40.768 28.3614 40.5586 28.2755C40.3499 28.1896 40.1697 28.0709 40.0194 27.9175C39.8666 27.7602 39.7457 27.5758 39.6633 27.3741C39.5747 27.1571 39.5303 26.9253 39.5325 26.6916C39.5325 26.4462 39.5749 26.2184 39.6598 26.0098C39.7447 25.8012 39.8615 25.6198 40.0125 25.4671C40.1627 25.3137 40.3394 25.1943 40.5412 25.1078C40.7429 25.0225 40.9614 24.9796 41.1972 24.9796C41.4462 24.9796 41.6695 25.0239 41.8664 25.1118C42.064 25.2005 42.2295 25.3171 42.3638 25.4637C42.498 25.6096 42.6003 25.7814 42.6706 25.9784C42.7415 26.1762 42.777 26.3855 42.777 26.6084V26.8171H40.0257ZM42.2692 26.4414C42.2692 26.1305 42.1746 25.8789 41.9867 25.6859C41.7989 25.493 41.5353 25.3968 41.1972 25.3968C41.0469 25.3968 40.9008 25.4262 40.7596 25.4834C40.6184 25.5421 40.4953 25.6198 40.3895 25.7173C40.2851 25.8128 40.1991 25.926 40.1356 26.0514C40.0731 26.1723 40.0404 26.3059 40.0403 26.4414H42.2692ZM43.8761 28.975C44.0125 29.1557 44.1899 29.3009 44.409 29.41C44.6274 29.5191 44.8709 29.5737 45.1387 29.5737C45.3732 29.5737 45.5735 29.5396 45.7377 29.4728C45.8908 29.4133 46.0274 29.3191 46.1363 29.198C46.2379 29.0821 46.3102 28.9457 46.3554 28.7909C46.3993 28.6355 46.4215 28.4691 46.4215 28.2932V27.7082H46.4076C46.2574 27.9312 46.0737 28.0887 45.858 28.1814C45.6423 28.2741 45.4091 28.3215 45.1735 28.3205C44.9342 28.3205 44.7095 28.2789 44.5008 28.1957C44.2976 28.1163 44.1119 27.9991 43.954 27.8507C43.7989 27.7041 43.6765 27.5303 43.5874 27.3257C43.4969 27.1166 43.4512 26.8915 43.4532 26.6643C43.4532 26.4278 43.4956 26.2068 43.5805 26.003C43.6654 25.7984 43.7808 25.6198 43.9297 25.4664C44.0779 25.3137 44.2539 25.1943 44.4584 25.1078C44.6622 25.0225 44.8876 24.9796 45.1318 24.9796C45.2306 24.9796 45.3349 24.9884 45.4448 25.0068C45.6858 25.0479 45.9125 25.1473 46.1043 25.2959C46.2128 25.3778 46.3137 25.48 46.4083 25.6062H46.4222V25.0628H46.8869V28.2932C46.8869 28.4691 46.8647 28.6573 46.8208 28.8564C46.7756 29.0562 46.6887 29.2396 46.5593 29.4066C46.4155 29.5854 46.2308 29.7286 46.0201 29.8246C45.7892 29.9357 45.4887 29.9916 45.1172 29.9916C44.7888 29.9916 44.4946 29.9384 44.2358 29.8307C43.9676 29.7175 43.7273 29.5491 43.5311 29.3371L43.8761 28.975ZM43.961 26.65C43.9606 26.9775 44.088 27.2927 44.3172 27.5309C44.4278 27.6441 44.5565 27.7355 44.7047 27.8016C44.8528 27.8698 45.0142 27.9025 45.1881 27.9025C45.5185 27.9045 45.8368 27.7811 46.0765 27.5582C46.1941 27.4491 46.2852 27.3182 46.3478 27.1648C46.4118 27.0121 46.441 26.8403 46.4361 26.65C46.4361 26.4782 46.4083 26.3173 46.3513 26.1659C46.297 26.0187 46.213 25.8838 46.1043 25.7691C45.9931 25.6533 45.8588 25.5609 45.7099 25.4978C45.5451 25.4285 45.3674 25.3941 45.1881 25.3968C45.0142 25.3968 44.8528 25.4309 44.7047 25.4978C44.4804 25.599 44.2909 25.7616 44.159 25.9661C44.027 26.1706 43.9582 26.4081 43.961 26.65V26.65ZM50.0466 26.3228V26.2396C50.0466 25.6778 49.7648 25.3968 49.2007 25.3968C48.8146 25.3968 48.4786 25.5243 48.192 25.78L47.9102 25.4528C48.2205 25.1371 48.6859 24.9796 49.3057 24.9796C49.4657 24.9796 49.6201 25.0028 49.7683 25.0491C49.9158 25.0948 50.0438 25.1664 50.1523 25.2618C50.2601 25.3573 50.3471 25.4759 50.4132 25.6198C50.4793 25.763 50.512 25.9362 50.512 26.1353V27.5896C50.512 27.715 50.5182 27.8459 50.5294 27.983C50.5412 28.12 50.5544 28.2325 50.5683 28.3205H50.1168C50.1021 28.2353 50.0917 28.1496 50.0855 28.0634C50.0787 27.9729 50.0752 27.8822 50.0751 27.7914H50.0612C49.9241 28.0103 49.7634 28.1664 49.5777 28.2618C49.392 28.3573 49.1645 28.405 48.8967 28.405C48.7506 28.405 48.6107 28.3846 48.4737 28.345C48.342 28.308 48.2188 28.2466 48.1106 28.1643C47.9992 28.0806 47.9096 27.9723 47.8489 27.8483C47.7883 27.7243 47.7583 27.588 47.7614 27.4505C47.7614 27.1859 47.8309 26.978 47.9701 26.8273C48.1126 26.674 48.292 26.558 48.4918 26.4898C48.7005 26.4162 48.9238 26.3698 49.1617 26.3507C49.3989 26.3323 49.6167 26.3234 49.8135 26.3234L50.0466 26.3228ZM49.8073 26.6984C49.689 26.6984 49.5429 26.7053 49.3662 26.7162C49.1945 26.7271 49.0243 26.7552 48.8584 26.8C48.7065 26.839 48.5648 26.9089 48.4424 27.0053C48.3853 27.0516 48.34 27.1104 48.31 27.1769C48.2801 27.2434 48.2663 27.3158 48.2699 27.3884C48.2699 27.4948 48.2921 27.5862 48.3367 27.6632C48.3812 27.7396 48.441 27.8016 48.5161 27.8507C48.5913 27.8991 48.6747 27.9346 48.7666 27.9557C48.8584 27.9762 48.9516 27.9864 49.0448 27.9864C49.2139 27.9864 49.3614 27.9591 49.4859 27.9025C49.6104 27.8473 49.7154 27.7723 49.7989 27.6775C49.885 27.5805 49.949 27.4666 49.9867 27.3434C50.0264 27.2153 50.0466 27.0789 50.0466 26.935V26.6984H49.8073ZM52.1621 28.3212H51.6967V23.0575H52.1621V28.3212ZM57.7746 24.2071C57.5541 23.8866 57.232 23.7264 56.8083 23.7264C56.6773 23.7262 56.5469 23.7439 56.4208 23.7789C56.2983 23.8119 56.1826 23.8659 56.0793 23.9384C55.9707 24.0159 55.8834 24.1184 55.8249 24.2368C55.7664 24.3553 55.7386 24.486 55.744 24.6175C55.744 24.8398 55.808 25.0137 55.9346 25.1357C56.0612 25.2591 56.2184 25.3607 56.4069 25.4391C56.5947 25.5175 56.8007 25.5891 57.024 25.6512C57.2466 25.7139 57.4532 25.7978 57.6403 25.9021C57.8288 26.0064 57.9867 26.1441 58.1134 26.3159C58.24 26.4878 58.3033 26.7223 58.3033 27.0189C58.3033 27.2418 58.2546 27.443 58.1593 27.6209C58.0661 27.7957 57.9362 27.9491 57.7781 28.0709C57.6208 28.1909 57.4441 28.2837 57.2494 28.3484C57.06 28.4125 56.8611 28.4455 56.6608 28.4459C56.3547 28.4459 56.0647 28.3893 55.7899 28.2755C55.5074 28.1561 55.2643 27.9621 55.088 27.715L55.5541 27.3878C55.6612 27.5691 55.8114 27.7137 56.0034 27.8234C56.1954 27.9325 56.4229 27.9871 56.6852 27.9871C56.8118 27.9871 56.9384 27.9666 57.065 27.9278C57.1916 27.8882 57.305 27.8303 57.4059 27.7532C57.5061 27.6775 57.5895 27.5828 57.6556 27.4716C57.721 27.3598 57.753 27.233 57.753 27.0884C57.753 26.9173 57.7168 26.7748 57.6445 26.6609C57.571 26.546 57.4724 26.4484 57.3558 26.3753C57.2279 26.295 57.0903 26.2309 56.9461 26.1843C56.789 26.1318 56.6315 26.0805 56.4737 26.0303C56.3132 25.9801 56.1553 25.922 56.0007 25.8564C55.8528 25.7944 55.7152 25.7112 55.5923 25.6096C55.4697 25.5058 55.3712 25.3775 55.3036 25.2332C55.2306 25.0832 55.1937 24.8937 55.1937 24.6659C55.1937 24.4293 55.2396 24.2228 55.3314 24.0468C55.4188 23.8756 55.5441 23.7256 55.6981 23.6078C55.8511 23.4918 56.0236 23.4059 56.2163 23.35C56.409 23.2948 56.6066 23.2668 56.8083 23.2668C57.0907 23.2668 57.3467 23.3112 57.5777 23.3991C57.8073 23.4878 58.0215 23.6425 58.2191 23.8662L57.7746 24.2071ZM62.4994 26.6916C62.4994 26.9378 62.4556 27.1648 62.3687 27.3734C62.286 27.5766 62.1628 27.7616 62.0062 27.9175C61.8481 28.0721 61.6597 28.1938 61.4525 28.2755C61.2382 28.3614 61.0017 28.405 60.7429 28.405C60.4897 28.405 60.256 28.3614 60.0417 28.2755C59.8346 28.194 59.6465 28.0722 59.4887 27.9175C59.3318 27.762 59.2083 27.5772 59.1255 27.3741C59.0368 27.1572 58.9923 26.9253 58.9947 26.6916C58.9947 26.4462 59.0379 26.2184 59.1255 26.0098C59.2118 25.8012 59.3328 25.6198 59.4887 25.4664C59.6431 25.3137 59.8274 25.1943 60.0417 25.1078C60.2649 25.0206 60.5034 24.9771 60.7436 24.9796C61.0017 24.9796 61.2375 25.0225 61.4525 25.1078C61.666 25.1943 61.8504 25.3137 62.0062 25.4664C62.1607 25.6198 62.2817 25.8005 62.368 26.0091C62.4556 26.2184 62.4994 26.4455 62.4994 26.6909V26.6916ZM61.9916 26.6916C61.9931 26.5185 61.9632 26.3465 61.9033 26.1837C61.8213 25.9481 61.6645 25.7446 61.4557 25.603C61.247 25.4613 60.9974 25.3891 60.7436 25.3968C60.5509 25.3968 60.3777 25.4309 60.2254 25.4978C60.0723 25.5659 59.9429 25.6573 59.8372 25.7725C59.7314 25.8891 59.6494 26.0262 59.5902 26.1837C59.5318 26.3412 59.5019 26.5109 59.5019 26.6916C59.5019 26.873 59.5318 27.0421 59.5902 27.2003C59.6494 27.3578 59.7314 27.4948 59.8372 27.61C59.9429 27.7273 60.0723 27.8187 60.2254 27.8855C60.3784 27.953 60.5509 27.9864 60.7436 27.9864C60.9363 27.9864 61.1088 27.953 61.2619 27.8855C61.4149 27.8187 61.545 27.7273 61.6528 27.61C61.7614 27.4948 61.8448 27.3578 61.9033 27.2003C61.9624 27.0421 61.9916 26.873 61.9916 26.6916ZM63.9165 28.3212H63.4504V23.0575H63.9165V28.3212ZM67.4205 28.3212C67.4115 28.2341 67.406 28.1468 67.4038 28.0593C67.4009 27.9723 67.3995 27.8853 67.3996 27.7982H67.3857C67.3342 27.8868 67.2681 27.9687 67.1881 28.0423C67.1081 28.1173 67.0191 28.18 66.9203 28.2332C66.8215 28.2871 66.7165 28.3287 66.6066 28.3593C66.4953 28.3893 66.3867 28.4043 66.2789 28.4043C65.8553 28.4043 65.5422 28.2939 65.3405 28.0737C65.1387 27.8534 65.0379 27.5391 65.0379 27.1307V25.0628H65.5033V26.8662C65.5033 27.0475 65.5172 27.2071 65.545 27.3462C65.5735 27.4859 65.6215 27.6025 65.6904 27.6973C65.7579 27.7928 65.8497 27.865 65.9652 27.9134C66.08 27.9618 66.224 27.9864 66.3986 27.9864C66.4215 27.9864 66.4876 27.9775 66.5961 27.9591C66.7205 27.9333 66.8374 27.8807 66.9384 27.805C67.0574 27.7218 67.1645 27.5971 67.2584 27.43C67.3523 27.2623 67.3996 27.0305 67.3996 26.7332V25.0628H67.865V27.6039C67.8702 27.8433 67.8821 28.0824 67.9005 28.3212H67.4205ZM70.665 25.48H69.7127V27.4021C69.7127 27.5228 69.7245 27.6209 69.7481 27.6973C69.7718 27.775 69.8045 27.8337 69.8469 27.8753C69.8888 27.9168 69.9411 27.9467 69.9986 27.9618C70.057 27.9789 70.1217 27.9864 70.1927 27.9864C70.272 27.9864 70.3547 27.9748 70.4396 27.9516C70.5231 27.9284 70.6017 27.8984 70.672 27.8616L70.6928 28.2857C70.4075 28.4065 70.0905 28.4358 69.7871 28.3696C69.6896 28.346 69.5991 28.3005 69.5227 28.2366C69.4373 28.1645 69.3697 28.0743 69.3252 27.9728C69.273 27.8616 69.2473 27.715 69.2473 27.5343V25.48H68.5495V25.0628H69.2473V24.1437H69.7134V25.0628H70.665V25.48ZM71.9763 23.8103C71.9763 23.9078 71.9415 23.9875 71.8706 24.0503C71.8082 24.1094 71.725 24.1428 71.6382 24.1437C71.5512 24.143 71.4678 24.1095 71.4052 24.0503C71.3707 24.0202 71.3433 23.9832 71.3249 23.9418C71.3066 23.9003 71.2976 23.8554 71.2987 23.8103C71.2987 23.7128 71.3342 23.633 71.4052 23.5703C71.4676 23.5107 71.5511 23.477 71.6382 23.4762C71.7224 23.4762 71.7996 23.5075 71.8706 23.5703C71.9408 23.6323 71.9763 23.7128 71.9763 23.8103ZM71.8706 28.3205H71.4045V25.0634H71.8706V28.3205ZM76.3269 26.6909C76.3269 26.9378 76.2831 27.1648 76.1968 27.3741C76.1092 27.5828 75.9881 27.7634 75.8337 27.9175C75.6755 28.0721 75.4872 28.1938 75.28 28.2755C75.0544 28.3639 74.8133 28.4079 74.5704 28.405C74.3172 28.405 74.0834 28.3614 73.8699 28.2755C73.6626 28.194 73.4742 28.0722 73.3161 27.9175C73.1597 27.7617 73.0363 27.577 72.953 27.3741C72.8642 27.1572 72.8198 26.9253 72.8222 26.6916C72.8222 26.4462 72.8654 26.2184 72.953 26.0098C73.04 25.8012 73.161 25.6198 73.3161 25.4664C73.4706 25.3137 73.6556 25.1943 73.8699 25.1078C74.0928 25.0206 74.3311 24.977 74.5711 24.9796C74.8299 24.9796 75.065 25.0225 75.28 25.1078C75.4935 25.1943 75.6779 25.3137 75.8337 25.4664C75.9881 25.6198 76.1092 25.8005 76.1968 26.0091C76.2831 26.2184 76.3269 26.4455 76.3269 26.6909V26.6909ZM75.8191 26.6909C75.8205 26.5181 75.7908 26.3464 75.7314 26.1837C75.6762 26.0319 75.5911 25.8922 75.481 25.7725C75.3711 25.6555 75.2378 25.562 75.0894 25.4978C74.9259 25.4283 74.7492 25.3939 74.5711 25.3968C74.3784 25.3968 74.2052 25.4309 74.0528 25.4978C73.8998 25.5659 73.7711 25.6573 73.6647 25.7725C73.5567 25.893 73.4731 26.0325 73.4184 26.1837C73.3593 26.3412 73.3301 26.5109 73.3301 26.6916C73.3301 26.873 73.3593 27.0421 73.4184 27.2003C73.4768 27.3578 73.5596 27.4948 73.6647 27.61C73.7711 27.7273 73.8998 27.8187 74.0528 27.8855C74.2059 27.953 74.3784 27.9864 74.5711 27.9864C74.7638 27.9864 74.9363 27.953 75.0894 27.8855C75.2424 27.8187 75.3725 27.7273 75.4803 27.61C75.5888 27.4948 75.6723 27.3578 75.7307 27.2003C75.7899 27.0421 75.8191 26.873 75.8191 26.6916V26.6909ZM77.6167 25.0628C77.6264 25.1514 77.632 25.238 77.6347 25.3239C77.6368 25.4098 77.6382 25.4971 77.6382 25.585H77.6521C77.7036 25.4971 77.7697 25.4159 77.8497 25.3409C78.0154 25.1916 78.215 25.0831 78.432 25.0246C78.5419 24.9946 78.6511 24.9796 78.7589 24.9796C79.1826 24.9796 79.4949 25.0893 79.6974 25.3103C79.8991 25.5305 80 25.8448 80 26.2532V28.3205H79.5346V26.5178C79.5346 26.1557 79.472 25.8789 79.344 25.6859C79.2174 25.493 78.9822 25.3968 78.6393 25.3968C78.5732 25.4028 78.5075 25.4121 78.4424 25.4248C78.3182 25.4502 78.2013 25.5024 78.1001 25.5775C77.9658 25.6778 77.8561 25.8064 77.7794 25.9539C77.6855 26.1209 77.6382 26.3528 77.6382 26.65V28.3205H77.1728V25.78C77.1676 25.5407 77.1557 25.3015 77.1374 25.0628H77.6167ZM29.9005 26.4039H-3.67697e-05V25.4862H29.9012L29.9005 26.4039Z" fill="#3172B9"/>
</svg>
